<?xml version="1.0" encoding="UTF-8"?>
<svg id="Layer_1" data-name="Layer 1" xmlns="http://www.w3.org/2000/svg" xmlns:xlink="http://www.w3.org/1999/xlink" viewBox="0 0 1003.85 225">
  <defs>
    <style>
      .cls-1 {
        fill: url(#linear-gradient-2);
      }

      .cls-2 {
        fill: #fff;
      }

      .cls-3 {
        fill: #011f3d;
      }

      .cls-4 {
        clip-path: url(#clippath);
      }

      .cls-5 {
        fill: none;
      }

      .cls-6 {
        fill: #547392;
      }

      .cls-7 {
        fill: url(#linear-gradient);
      }
    </style>
    <linearGradient id="linear-gradient" x1="754.43" y1="85.63" x2="926.73" y2="85.63" gradientUnits="userSpaceOnUse">
      <stop offset="0" stop-color="#8e3cf6"/>
      <stop offset=".55" stop-color="#5399c8"/>
      <stop offset=".8" stop-color="#3cc0b5"/>
      <stop offset="1" stop-color="#3cc0b5"/>
      <stop offset="1" stop-color="#3cc0b5"/>
    </linearGradient>
    <clipPath id="clippath">
      <path class="cls-5" d="m71.13,79.82c0,31.12,20.32,38.48,40.74,43.69,14.43,3.73,27.69,7.09,27.69,25.03h20.81c0-31.39-20.61-38.48-40.74-43.69-14.43-3.73-27.68-8.44-27.68-25.03h-20.81Z"/>
    </clipPath>
    <linearGradient id="linear-gradient-2" x1="2459.72" y1="881.3" x2="2463.17" y2="881.3" gradientTransform="translate(-27741.21 -77689.66) rotate(90) scale(31.61 -31.61)" gradientUnits="userSpaceOnUse">
      <stop offset="0" stop-color="#8e3cf6"/>
      <stop offset=".2" stop-color="#8c41f4"/>
      <stop offset=".29" stop-color="#844ded"/>
      <stop offset=".46" stop-color="#706ddd"/>
      <stop offset=".68" stop-color="#4fa1c4"/>
      <stop offset=".8" stop-color="#3cc0b5"/>
      <stop offset="1" stop-color="#3cc0b5"/>
      <stop offset="1" stop-color="#3cc0b5"/>
    </linearGradient>
  </defs>
  <path class="cls-2" d="m980.49,224.55H23.35c-11.83,0-21.43-10.03-21.43-22.41V22.83C1.92,10.45,11.52.41,23.35.41h957.14c11.83,0,21.43,10.03,21.43,22.41v179.31c0,12.38-9.59,22.41-21.43,22.41Z"/>
  <path class="cls-7" d="m776.62,90.05c2.75-3.01,4.69-5.65,5.82-7.91s1.7-4.49,1.7-6.67c0-3.98-1.26-7.06-3.77-9.24s-6.05-3.27-10.59-3.27c-2.97,0-5.63.63-7.97,1.9s-4.16,3-5.44,5.23-1.92,4.68-1.92,7.36h8.79c0-2.22.57-4.01,1.71-5.38s2.7-2.05,4.68-2.05c1.84,0,3.25.56,4.24,1.68s1.49,2.66,1.49,4.62c0,1.43-.47,2.95-1.41,4.55s-2.39,3.47-4.35,5.61l-14.27,15.21v6h30.25v-7.06h-18.97l10.03-10.58Zm29.06-27.09c-4.81,0-8.49,1.6-11.05,4.79s-3.83,7.87-3.83,14.03v8.12c.06,5.92,1.36,10.47,3.91,13.64s6.22,4.76,11.03,4.76,8.57-1.62,11.09-4.85,3.79-7.9,3.79-14v-8.12c-.06-5.92-1.36-10.46-3.91-13.62s-6.22-4.74-11.03-4.74Zm6.18,28.05c-.04,3.46-.54,6.03-1.49,7.71-.95,1.68-2.5,2.52-4.64,2.52s-3.73-.87-4.71-2.62c-.98-1.75-1.47-4.42-1.47-8.02v-10.74c.06-3.38.58-5.86,1.56-7.45.98-1.59,2.5-2.38,4.56-2.38s3.68.84,4.68,2.5c1,1.67,1.5,4.33,1.5,7.99v10.5Zm31.25-12.32c-2.34,0-4.56.56-6.64,1.67l1.09-9.49h17.55v-7.3h-24.73l-2.55,22.43,6.97,1.73.85-.79c1.29-1.09,2.98-1.64,5.06-1.64,2.26,0,4.01.67,5.24,2s1.85,3.25,1.85,5.76-.54,4.62-1.61,6.05-2.6,2.13-4.58,2.13c-1.78,0-3.22-.51-4.32-1.53s-1.74-2.45-1.92-4.29h-8.67c.08,2.51.78,4.74,2.11,6.7s3.13,3.48,5.41,4.56,4.76,1.62,7.43,1.62c3.05,0,5.7-.62,7.94-1.86s3.97-2.99,5.17-5.24,1.8-4.81,1.8-7.65c0-4.69-1.19-8.33-3.58-10.94s-5.68-3.91-9.88-3.91Zm33.79-15.73c-4.81,0-8.49,1.6-11.05,4.79s-3.83,7.87-3.83,14.03v8.12c.06,5.92,1.36,10.47,3.91,13.64s6.22,4.76,11.03,4.76,8.57-1.62,11.09-4.85,3.79-7.9,3.79-14v-8.12c-.06-5.92-1.36-10.46-3.91-13.62s-6.22-4.74-11.03-4.74Zm6.18,28.05c-.04,3.46-.54,6.03-1.49,7.71-.95,1.68-2.5,2.52-4.64,2.52s-3.73-.87-4.71-2.62c-.98-1.75-1.47-4.42-1.47-8.02v-10.74c.06-3.38.58-5.86,1.56-7.45.98-1.59,2.5-2.38,4.56-2.38s3.68.84,4.68,2.5c1,1.67,1.5,4.33,1.5,7.99v10.5Zm32.7-8.02v-11.85h-8.33v11.85h-10.97v7.91h10.97v12.37h8.33v-12.37h10.94v-7.91h-10.94Z"/>
  <g>
    <path class="cls-3" d="m279.66,98.6h-15.94l-3.03,9.09h-9.67l16.43-44.13h8.43l16.52,44.13h-9.67l-3.06-9.09Zm-13.49-7.36h11.03l-5.55-16.52-5.49,16.52Z"/>
    <path class="cls-3" d="m294.57,91.05c0-5.11,1.15-9.18,3.44-12.21,2.3-3.03,5.43-4.55,9.41-4.55,3.19,0,5.83,1.19,7.91,3.58v-16.73h8.79v46.55h-7.91l-.42-3.49c-2.18,2.73-4.99,4.09-8.43,4.09-3.86,0-6.95-1.52-9.29-4.56-2.33-3.04-3.5-7.27-3.5-12.68Zm8.76.65c0,3.08.54,5.43,1.61,7.07,1.07,1.64,2.63,2.46,4.67,2.46,2.71,0,4.62-1.14,5.73-3.43v-12.96c-1.09-2.29-2.98-3.43-5.67-3.43-4.22,0-6.33,3.43-6.33,10.29Z"/>
    <path class="cls-3" d="m349.91,107.69c-.4-.79-.7-1.77-.88-2.94-2.12,2.36-4.88,3.55-8.27,3.55-3.21,0-5.88-.93-7.98-2.79-2.11-1.86-3.17-4.2-3.17-7.03,0-3.48,1.29-6.14,3.86-8,2.58-1.86,6.3-2.8,11.17-2.82h4.03v-1.88c0-1.52-.39-2.73-1.17-3.64-.78-.91-2.01-1.36-3.68-1.36-1.47,0-2.63.35-3.47,1.06-.84.71-1.26,1.68-1.26,2.91h-8.76c0-1.9.59-3.66,1.76-5.27s2.83-2.88,4.97-3.8,4.55-1.38,7.21-1.38c4.04,0,7.25,1.02,9.62,3.05,2.38,2.03,3.56,4.88,3.56,8.56v14.21c.02,3.11.45,5.47,1.3,7.06v.52h-8.85Zm-7.24-6.09c1.29,0,2.49-.29,3.58-.86s1.9-1.35,2.42-2.32v-5.64h-3.27c-4.38,0-6.72,1.52-7,4.55l-.03.52c0,1.09.38,1.99,1.15,2.7s1.82,1.06,3.15,1.06Z"/>
    <path class="cls-3" d="m393.73,91.6c0,5.25-1.12,9.35-3.36,12.29s-5.37,4.41-9.4,4.41c-3.56,0-6.39-1.36-8.52-4.09l-.39,3.49h-7.88v-46.55h8.76v16.7c2.02-2.36,4.68-3.55,7.97-3.55,4,0,7.14,1.47,9.41,4.41,2.28,2.94,3.41,7.08,3.41,12.41v.48Zm-8.76-.64c0-3.31-.53-5.73-1.58-7.26s-2.62-2.29-4.7-2.29c-2.79,0-4.71,1.14-5.76,3.42v12.94c1.07,2.3,3.01,3.46,5.82,3.46s4.69-1.39,5.58-4.18c.42-1.33.64-3.36.64-6.09Z"/>
    <path class="cls-3" d="m418.13,107.69c-.4-.79-.7-1.77-.88-2.94-2.12,2.36-4.88,3.55-8.27,3.55-3.21,0-5.87-.93-7.99-2.79-2.11-1.86-3.17-4.2-3.17-7.03,0-3.48,1.29-6.14,3.87-8,2.57-1.86,6.3-2.8,11.17-2.82h4.03v-1.88c0-1.52-.39-2.73-1.17-3.64-.77-.91-2-1.36-3.68-1.36-1.47,0-2.63.35-3.47,1.06-.84.71-1.26,1.68-1.26,2.91h-8.76c0-1.9.59-3.66,1.76-5.27s2.83-2.88,4.97-3.8,4.55-1.38,7.21-1.38c4.04,0,7.25,1.02,9.62,3.05,2.37,2.03,3.56,4.88,3.56,8.56v14.21c.02,3.11.45,5.47,1.3,7.06v.52h-8.85Zm-7.24-6.09c1.29,0,2.49-.29,3.58-.86s1.9-1.35,2.42-2.32v-5.64h-3.27c-4.38,0-6.72,1.52-7,4.55l-.03.52c0,1.09.38,1.99,1.15,2.7s1.82,1.06,3.15,1.06Z"/>
    <path class="cls-3" d="m450.17,98.63c0-1.07-.53-1.91-1.59-2.53-1.06-.62-2.76-1.17-5.11-1.65-7.8-1.64-11.7-4.95-11.7-9.94,0-2.91,1.21-5.34,3.62-7.29,2.41-1.95,5.57-2.92,9.47-2.92,4.16,0,7.49.98,9.99,2.94,2.49,1.96,3.74,4.51,3.74,7.64h-8.76c0-1.25-.4-2.29-1.21-3.11s-2.07-1.23-3.79-1.23c-1.47,0-2.62.33-3.42,1s-1.21,1.52-1.21,2.55c0,.97.46,1.75,1.38,2.35.92.6,2.47,1.11,4.65,1.55s4.02.92,5.52,1.47c4.63,1.7,6.94,4.64,6.94,8.82,0,2.99-1.28,5.41-3.85,7.26s-5.88,2.77-9.94,2.77c-2.75,0-5.19-.49-7.32-1.47-2.13-.98-3.81-2.32-5.02-4.03s-1.82-3.55-1.82-5.53h8.3c.08,1.56.66,2.75,1.73,3.58s2.51,1.24,4.3,1.24c1.68,0,2.95-.32,3.8-.95.86-.64,1.29-1.47,1.29-2.5Z"/>
    <path class="cls-3" d="m478.56,95.81c0-2.04.57-3.93,1.71-5.67,1.14-1.74,3.24-3.67,6.29-5.79-1.31-1.76-2.34-3.41-3.09-4.96s-1.12-3.16-1.12-4.83c0-3.43,1.09-6.23,3.26-8.38,2.18-2.15,5.1-3.23,8.78-3.23,3.29,0,5.99.98,8.11,2.94,2.11,1.96,3.17,4.4,3.17,7.33,0,3.52-1.78,6.62-5.33,9.3l-3.39,2.45,7.61,8.85c1.19-2.34,1.79-4.93,1.79-7.76h7.46c0,5.74-1.32,10.39-3.97,13.94l6.61,7.67h-9.94l-2.27-2.61c-3.25,2.14-6.99,3.21-11.21,3.21s-7.86-1.15-10.49-3.44-3.94-5.31-3.94-9.05Zm14.85,5.42c2.1,0,4.09-.58,5.97-1.75l-8.7-10.04-.64.45c-1.8,1.53-2.7,3.34-2.7,5.41,0,1.75.56,3.18,1.68,4.28,1.12,1.1,2.58,1.65,4.38,1.65Zm-3.21-26.79c0,1.52.89,3.42,2.67,5.73l2.33-1.55c1.19-.77,2.02-1.52,2.47-2.24.46-.73.68-1.6.68-2.61s-.37-1.89-1.12-2.64-1.71-1.12-2.88-1.12c-1.25,0-2.26.4-3.01,1.21-.76.81-1.14,1.88-1.14,3.21Z"/>
    <path class="cls-3" d="m572.43,107.69h-9.09l-17.7-29.03v29.03h-9.09v-44.13h9.09l17.73,29.09v-29.09h9.06v44.13Z"/>
    <path class="cls-3" d="m598.79,107.69c-.4-.79-.7-1.77-.88-2.94-2.12,2.36-4.88,3.55-8.27,3.55-3.21,0-5.88-.93-7.98-2.79-2.11-1.86-3.17-4.2-3.17-7.03,0-3.48,1.29-6.14,3.86-8,2.58-1.86,6.3-2.8,11.17-2.82h4.03v-1.88c0-1.52-.39-2.73-1.17-3.64-.78-.91-2.01-1.36-3.68-1.36-1.47,0-2.63.35-3.47,1.06-.84.71-1.26,1.68-1.26,2.91h-8.76c0-1.9.59-3.66,1.76-5.27s2.83-2.88,4.97-3.8,4.55-1.38,7.21-1.38c4.04,0,7.25,1.02,9.62,3.05,2.38,2.03,3.56,4.88,3.56,8.56v14.21c.02,3.11.45,5.47,1.3,7.06v.52h-8.85Zm-7.24-6.09c1.29,0,2.49-.29,3.58-.86s1.9-1.35,2.42-2.32v-5.64h-3.27c-4.38,0-6.72,1.52-7,4.55l-.03.52c0,1.09.38,1.99,1.15,2.7s1.82,1.06,3.15,1.06Z"/>
    <path class="cls-3" d="m623.55,66.83v8.06h5.61v6.43h-5.61v16.37c0,1.21.23,2.08.7,2.61s1.35.79,2.67.79c.97,0,1.83-.07,2.58-.21v6.64c-1.72.53-3.49.79-5.3.79-6.14,0-9.27-3.1-9.4-9.3v-17.67h-4.79v-6.43h4.79v-8.06h8.76Z"/>
    <path class="cls-3" d="m653.68,104.35c-2.16,2.63-5.15,3.94-8.97,3.94-3.52,0-6.2-1.01-8.05-3.03-1.85-2.02-2.79-4.98-2.83-8.88v-21.49h8.76v21.21c0,3.42,1.56,5.13,4.67,5.13s5.01-1.03,6.12-3.09v-23.24h8.79v32.79h-8.24l-.24-3.33Z"/>
    <path class="cls-3" d="m687.2,83.11c-1.19-.16-2.24-.24-3.15-.24-3.31,0-5.49,1.12-6.52,3.36v21.46h-8.76v-32.79h8.27l.24,3.91c1.76-3.01,4.19-4.52,7.3-4.52.97,0,1.88.13,2.73.39l-.12,8.43Z"/>
    <path class="cls-3" d="m709.61,107.69c-.4-.79-.69-1.77-.88-2.94-2.12,2.36-4.88,3.55-8.28,3.55-3.21,0-5.87-.93-7.98-2.79s-3.17-4.2-3.17-7.03c0-3.48,1.29-6.14,3.87-8s6.3-2.8,11.17-2.82h4.03v-1.88c0-1.52-.39-2.73-1.17-3.64s-2-1.36-3.68-1.36c-1.47,0-2.63.35-3.47,1.06s-1.26,1.68-1.26,2.91h-8.76c0-1.9.59-3.66,1.76-5.27s2.83-2.88,4.97-3.8,4.55-1.38,7.21-1.38c4.04,0,7.25,1.02,9.62,3.05s3.56,4.88,3.56,8.56v14.21c.02,3.11.45,5.47,1.3,7.06v.52h-8.85Zm-7.24-6.09c1.29,0,2.49-.29,3.58-.86s1.9-1.35,2.42-2.32v-5.64h-3.27c-4.38,0-6.72,1.52-7,4.55l-.03.52c0,1.09.38,1.99,1.15,2.7s1.82,1.06,3.15,1.06Z"/>
    <path class="cls-3" d="m733.12,107.69h-8.79v-46.55h8.79v46.55Z"/>
  </g>
  <g>
    <path class="cls-3" d="m270.45,149.87h-12.35v12.99h-3.88v-29.42h18.22v3.17h-14.35v10.08h12.35v3.17Z"/>
    <path class="cls-3" d="m289.59,160.7c-1.45,1.71-3.59,2.57-6.4,2.57-2.33,0-4.1-.68-5.32-2.03s-1.84-3.36-1.85-6.01v-14.22h3.74v14.12c0,3.31,1.35,4.97,4.04,4.97,2.86,0,4.75-1.06,5.7-3.19v-15.9h3.74v21.86h-3.56l-.08-2.16Z"/>
    <path class="cls-3" d="m303.98,135.71v5.29h4.08v2.89h-4.08v13.57c0,.88.18,1.53.55,1.97.36.44.98.66,1.86.66.43,0,1.02-.08,1.78-.24v3.01c-.98.27-1.94.4-2.87.4-1.67,0-2.93-.51-3.78-1.52s-1.27-2.44-1.27-4.3v-13.56h-3.98v-2.89h3.98v-5.29h3.74Z"/>
    <path class="cls-3" d="m325.92,160.7c-1.45,1.71-3.59,2.57-6.4,2.57-2.33,0-4.1-.68-5.32-2.03s-1.84-3.36-1.85-6.01v-14.22h3.74v14.12c0,3.31,1.35,4.97,4.04,4.97,2.86,0,4.75-1.06,5.7-3.19v-15.9h3.74v21.86h-3.56l-.08-2.16Z"/>
    <path class="cls-3" d="m345.8,144.35c-.57-.09-1.18-.14-1.84-.14-2.45,0-4.12,1.04-4.99,3.13v15.52h-3.74v-21.86h3.64l.06,2.53c1.23-1.95,2.96-2.93,5.21-2.93.73,0,1.28.09,1.66.28v3.48Z"/>
    <path class="cls-3" d="m357.94,163.26c-2.96,0-5.37-.97-7.23-2.92s-2.79-4.55-2.79-7.81v-.69c0-2.17.41-4.1,1.24-5.81s1.99-3.04,3.48-4,3.1-1.44,4.84-1.44c2.84,0,5.05.94,6.63,2.81s2.36,4.55,2.36,8.04v1.56h-14.81c.05,2.16.68,3.9,1.89,5.22s2.74,1.99,4.6,1.99c1.32,0,2.44-.27,3.35-.81s1.72-1.25,2.4-2.14l2.28,1.78c-1.83,2.82-4.58,4.22-8.24,4.22Zm-.46-19.6c-1.51,0-2.77.55-3.8,1.65s-1.66,2.64-1.9,4.62h10.95v-.28c-.11-1.9-.62-3.37-1.54-4.41s-2.16-1.57-3.72-1.57Z"/>
    <path class="cls-3" d="m391.6,144.35c-.57-.09-1.18-.14-1.84-.14-2.45,0-4.12,1.04-4.99,3.13v15.52h-3.74v-21.86h3.64l.06,2.53c1.23-1.95,2.96-2.93,5.21-2.93.73,0,1.28.09,1.66.28v3.48Z"/>
    <path class="cls-3" d="m403.73,163.26c-2.96,0-5.37-.97-7.23-2.92s-2.79-4.55-2.79-7.81v-.69c0-2.17.41-4.1,1.24-5.81s1.99-3.04,3.48-4,3.1-1.44,4.84-1.44c2.84,0,5.05.94,6.63,2.81s2.36,4.55,2.36,8.04v1.56h-14.81c.05,2.16.68,3.9,1.89,5.22s2.74,1.99,4.6,1.99c1.32,0,2.44-.27,3.35-.81s1.72-1.25,2.4-2.14l2.28,1.78c-1.83,2.82-4.58,4.22-8.24,4.22Zm-.46-19.6c-1.51,0-2.77.55-3.8,1.65s-1.66,2.64-1.9,4.62h10.95v-.28c-.11-1.9-.62-3.37-1.54-4.41s-2.16-1.57-3.72-1.57Z"/>
    <path class="cls-3" d="m430.08,162.86c-.22-.43-.39-1.2-.53-2.3-1.74,1.8-3.81,2.71-6.22,2.71-2.16,0-3.92-.61-5.3-1.83s-2.07-2.76-2.07-4.64c0-2.28.87-4.04,2.6-5.3s4.17-1.89,7.3-1.89h3.64v-1.72c0-1.31-.39-2.35-1.17-3.12s-1.93-1.16-3.46-1.16c-1.33,0-2.45.34-3.35,1.01s-1.35,1.49-1.35,2.44h-3.76c0-1.09.39-2.15,1.16-3.16s1.83-1.82,3.15-2.41,2.78-.89,4.37-.89c2.52,0,4.49.63,5.92,1.89s2.17,2.99,2.22,5.2v10.06c0,2.01.26,3.6.77,4.79v.32h-3.92Zm-6.2-2.85c1.17,0,2.28-.3,3.33-.91s1.81-1.39,2.28-2.36v-4.49h-2.93c-4.58,0-6.87,1.34-6.87,4.02,0,1.17.39,2.09,1.17,2.75s1.78.99,3.01.99Z"/>
    <path class="cls-3" d="m438.18,151.75c0-3.35.79-6.05,2.38-8.09s3.67-3.06,6.24-3.06,4.59.88,6.08,2.63v-11.4h3.74v31.03h-3.43l-.18-2.34c-1.5,1.83-3.58,2.75-6.24,2.75s-4.6-1.04-6.19-3.11-2.39-4.78-2.39-8.12v-.28Zm3.74.42c0,2.48.51,4.42,1.54,5.82s2.44,2.1,4.24,2.1c2.37,0,4.1-1.06,5.19-3.19v-10.04c-1.12-2.06-2.84-3.09-5.15-3.09-1.83,0-3.26.71-4.28,2.12s-1.54,3.51-1.54,6.28Z"/>
    <path class="cls-3" d="m469.58,157.39l5.09-16.39h4l-8.79,25.24c-1.36,3.64-3.52,5.46-6.49,5.46l-.71-.06-1.39-.26v-3.03l1.01.08c1.27,0,2.25-.26,2.96-.77s1.29-1.45,1.75-2.81l.83-2.22-7.8-21.62h4.08l5.46,16.39Z"/>
    <path class="cls-3" d="m479.93,160.9c0-.65.19-1.19.58-1.62s.96-.65,1.73-.65,1.35.22,1.75.65.6.97.6,1.62-.2,1.14-.6,1.56-.98.63-1.75.63-1.34-.21-1.73-.63-.58-.94-.58-1.56Z"/>
    <path class="cls-3" d="m524.18,162.86h-3.9l-14.81-22.67v22.67h-3.9v-29.42h3.9l14.85,22.77v-22.77h3.86v29.42Z"/>
    <path class="cls-3" d="m529.49,151.73c0-2.14.42-4.07,1.26-5.78s2.01-3.03,3.52-3.96,3.22-1.39,5.14-1.39c2.98,0,5.38,1.03,7.22,3.09s2.76,4.8,2.76,8.22v.26c0,2.13-.41,4.04-1.22,5.73s-1.98,3.01-3.5,3.95-3.26,1.41-5.22,1.41c-2.96,0-5.36-1.03-7.2-3.09s-2.76-4.79-2.76-8.18v-.26Zm3.76.44c0,2.42.56,4.37,1.69,5.84s2.63,2.2,4.52,2.2,3.41-.74,4.53-2.23,1.68-3.57,1.68-6.25c0-2.4-.57-4.34-1.71-5.83s-2.65-2.23-4.54-2.23-3.33.73-4.47,2.2-1.7,3.57-1.7,6.3Z"/>
    <path class="cls-3" d="m573.44,157.71l4.2-16.71h3.74l-6.36,21.86h-3.03l-5.31-16.57-5.17,16.57h-3.03l-6.34-21.86h3.72l4.3,16.37,5.09-16.37h3.01l5.19,16.71Z"/>
    <path class="cls-3" d="m582.77,160.9c0-.65.2-1.19.58-1.62s.96-.65,1.72-.65,1.35.22,1.75.65.59.97.59,1.62-.2,1.14-.59,1.56-.98.63-1.75.63-1.34-.21-1.72-.63-.58-.94-.58-1.56Z"/>
  </g>
  <rect class="cls-6" x="204.8" y="59.01" width="3.45" height="110.34"/>
  <g>
    <g class="cls-4">
      <rect class="cls-1" x="66.69" y="59.69" width="98.13" height="109" transform="translate(-34.58 176.12) rotate(-67)"/>
    </g>
    <g>
      <path class="cls-3" d="m87.92,169.36h30.63c11.49,0,21.01-8.83,21.01-20.81h-51.64v20.81Z"/>
      <path class="cls-3" d="m143.49,59.01h-30.53c-11.49,0-21.01,8.83-21.01,20.81h51.54v-20.81Z"/>
    </g>
  </g>
</svg>