<?xml version="1.0" encoding="UTF-8"?>
<svg id="Layer_1" data-name="Layer 1" xmlns="http://www.w3.org/2000/svg" viewBox="0 0 1920 230">
  <defs>
    <style>
      .cls-1 {
        fill: #fff;
      }
    </style>
  </defs>
  <rect class="cls-1" x="264.15" width="7.19" height="229.93"/>
  <g>
    <path class="cls-1" d="m101.06,95.53c-30.07-7.77-57.69-17.59-57.69-52.16H0c0,64.85,42.35,80.19,84.89,91.03,30.07,7.77,57.69,14.78,57.69,52.16h43.37c0-65.41-42.96-80.19-84.89-91.03Z"/>
    <path class="cls-1" d="m34.98,229.93h63.83c23.93,0,43.78-18.41,43.78-43.37H34.98v43.37Z"/>
    <path class="cls-1" d="m150.77,0h-63.62c-23.93,0-43.78,18.41-43.78,43.37h107.4V0Z"/>
  </g>
  <g>
    <path class="cls-1" d="m443.41,157.15h-51.92l-9.87,29.61h-31.49l53.5-143.72h27.44l53.8,143.72h-31.49l-9.97-29.61Zm-43.93-23.99h35.93l-18.06-53.8-17.87,53.8Z"/>
    <path class="cls-1" d="m491.97,132.57c0-16.65,3.73-29.91,11.2-39.78,7.47-9.87,17.68-14.81,30.65-14.81,10.4,0,18.98,3.88,25.76,11.65v-54.49h28.63v151.62h-25.76l-1.38-11.35c-7.11,8.88-16.25,13.33-27.44,13.33-12.57,0-22.65-4.95-30.25-14.86-7.6-9.9-11.4-23.67-11.4-41.31Zm28.53,2.12c0,10.02,1.74,17.7,5.23,23.03,3.49,5.34,8.55,8.01,15.2,8.01,8.82,0,15.04-3.72,18.66-11.17v-42.21c-3.55-7.45-9.71-11.17-18.46-11.17-13.75,0-20.63,11.17-20.63,33.51Z"/>
    <path class="cls-1" d="m672.21,186.76c-1.32-2.57-2.27-5.76-2.86-9.57-6.91,7.7-15.89,11.55-26.95,11.55-10.46,0-19.13-3.03-26.01-9.08-6.88-6.05-10.32-13.69-10.32-22.9,0-11.32,4.2-20,12.59-26.06,8.39-6.05,20.51-9.11,36.37-9.18h13.13v-6.12c0-4.94-1.27-8.88-3.8-11.85-2.53-2.96-6.53-4.44-11.99-4.44-4.8,0-8.57,1.15-11.3,3.45-2.73,2.3-4.1,5.46-4.1,9.48h-28.53c0-6.18,1.91-11.91,5.73-17.18,3.82-5.26,9.21-9.39,16.19-12.39,6.97-2.99,14.81-4.49,23.49-4.49,13.16,0,23.61,3.31,31.34,9.92,7.73,6.61,11.6,15.91,11.6,27.89v46.29c.06,10.13,1.48,17.8,4.24,23v1.68h-28.82Zm-23.59-19.84c4.21,0,8.09-.94,11.65-2.81s6.18-4.39,7.9-7.55v-18.36h-10.66c-14.28,0-21.88,4.94-22.8,14.81l-.1,1.68c0,3.55,1.25,6.48,3.75,8.79,2.5,2.3,5.92,3.45,10.27,3.45Z"/>
    <path class="cls-1" d="m814.95,134.35c0,17.11-3.65,30.45-10.96,40.03-7.3,9.57-17.51,14.36-30.6,14.36-11.58,0-20.83-4.44-27.74-13.33l-1.28,11.35h-25.66V35.14h28.53v54.39c6.58-7.7,15.23-11.55,25.96-11.55,13.03,0,23.25,4.79,30.65,14.36,7.4,9.57,11.1,23.05,11.1,40.42v1.58Zm-28.53-2.07c0-10.79-1.71-18.67-5.13-23.64-3.42-4.97-8.52-7.45-15.3-7.45-9.08,0-15.33,3.72-18.76,11.15v42.15c3.49,7.5,9.8,11.25,18.95,11.25s15.27-4.54,18.16-13.62c1.38-4.34,2.07-10.96,2.07-19.84Z"/>
    <path class="cls-1" d="m894.41,186.76c-1.32-2.57-2.27-5.76-2.86-9.57-6.91,7.7-15.89,11.55-26.95,11.55-10.46,0-19.13-3.03-26.01-9.08-6.88-6.05-10.32-13.69-10.32-22.9,0-11.32,4.2-20,12.59-26.06,8.39-6.05,20.51-9.11,36.37-9.18h13.13v-6.12c0-4.94-1.27-8.88-3.8-11.85-2.53-2.96-6.53-4.44-11.99-4.44-4.8,0-8.57,1.15-11.3,3.45-2.73,2.3-4.1,5.46-4.1,9.48h-28.53c0-6.18,1.91-11.91,5.73-17.18,3.82-5.26,9.21-9.39,16.19-12.39,6.97-2.99,14.81-4.49,23.49-4.49,13.16,0,23.61,3.31,31.34,9.92,7.73,6.61,11.6,15.91,11.6,27.89v46.29c.06,10.13,1.48,17.8,4.24,23v1.68h-28.82Zm-23.59-19.84c4.21,0,8.09-.94,11.65-2.81,3.55-1.88,6.18-4.39,7.9-7.55v-18.36h-10.66c-14.28,0-21.88,4.94-22.8,14.81l-.1,1.68c0,3.55,1.25,6.48,3.75,8.79,2.5,2.3,5.92,3.45,10.27,3.45Z"/>
    <path class="cls-1" d="m998.75,157.25c0-3.49-1.73-6.23-5.18-8.24-3.45-2.01-9-3.8-16.63-5.38-25.4-5.33-38.1-16.12-38.1-32.38,0-9.48,3.93-17.39,11.8-23.74,7.86-6.35,18.15-9.53,30.85-9.53,13.56,0,24.4,3.19,32.52,9.57,8.13,6.38,12.19,14.68,12.19,24.87h-28.53c0-4.08-1.32-7.45-3.95-10.12-2.63-2.66-6.75-4-12.34-4-4.8,0-8.52,1.09-11.15,3.26-2.63,2.17-3.95,4.94-3.95,8.29,0,3.16,1.5,5.71,4.49,7.65,2.99,1.94,8.04,3.62,15.15,5.03,7.11,1.42,13.09,3.01,17.96,4.79,15.07,5.53,22.6,15.1,22.6,28.72,0,9.74-4.18,17.62-12.54,23.64-8.36,6.02-19.15,9.03-32.38,9.03-8.95,0-16.9-1.6-23.84-4.79-6.94-3.19-12.39-7.57-16.34-13.13-3.95-5.56-5.92-11.56-5.92-18.01h27.05c.26,5.07,2.14,8.95,5.63,11.65,3.49,2.7,8.16,4.05,14.02,4.05,5.46,0,9.59-1.04,12.39-3.11,2.8-2.07,4.2-4.79,4.2-8.14Z"/>
    <path class="cls-1" d="m1091.24,148.07c0-6.65,1.86-12.8,5.58-18.46,3.72-5.66,10.54-11.94,20.48-18.85-4.28-5.73-7.63-11.1-10.07-16.14-2.44-5.03-3.65-10.28-3.65-15.74,0-11.19,3.54-20.29,10.61-27.29,7.07-7.01,16.6-10.51,28.58-10.51,10.73,0,19.53,3.19,26.4,9.57,6.88,6.38,10.32,14.35,10.32,23.89,0,11.45-5.79,21.55-17.37,30.3l-11.06,8,24.78,28.82c3.88-7.63,5.82-16.06,5.82-25.27h24.28c0,18.69-4.31,33.82-12.93,45.41l21.52,24.97h-32.38l-7.4-8.49c-10.6,6.98-22.77,10.46-36.52,10.46s-25.6-3.73-34.15-11.2c-8.56-7.47-12.83-17.29-12.83-29.46Zm48.37,17.67c6.84,0,13.33-1.9,19.45-5.71l-28.33-32.69-2.07,1.48c-5.86,4.99-8.79,10.86-8.79,17.62,0,5.71,1.83,10.36,5.48,13.93,3.65,3.58,8.41,5.37,14.26,5.37Zm-10.46-87.26c0,4.94,2.89,11.15,8.69,18.66l7.6-5.03c3.88-2.5,6.56-4.94,8.04-7.3,1.48-2.37,2.22-5.2,2.22-8.49s-1.22-6.15-3.65-8.59c-2.44-2.43-5.56-3.65-9.38-3.65-4.08,0-7.35,1.32-9.82,3.95-2.47,2.63-3.7,6.12-3.7,10.46Z"/>
    <path class="cls-1" d="m1396.94,186.76h-29.61l-57.65-94.56v94.56h-29.61V43.04h29.61l57.74,94.76V43.04h29.51v143.72Z"/>
    <path class="cls-1" d="m1482.82,186.76c-1.32-2.57-2.27-5.76-2.86-9.57-6.91,7.7-15.89,11.55-26.95,11.55-10.46,0-19.13-3.03-26.01-9.08-6.88-6.05-10.32-13.69-10.32-22.9,0-11.32,4.2-20,12.59-26.06,8.39-6.05,20.51-9.11,36.37-9.18h13.13v-6.12c0-4.94-1.27-8.88-3.8-11.85-2.53-2.96-6.53-4.44-11.99-4.44-4.8,0-8.57,1.15-11.3,3.45-2.73,2.3-4.1,5.46-4.1,9.48h-28.53c0-6.18,1.91-11.91,5.73-17.18,3.82-5.26,9.21-9.39,16.19-12.39,6.97-2.99,14.81-4.49,23.49-4.49,13.16,0,23.61,3.31,31.34,9.92,7.73,6.61,11.6,15.91,11.6,27.89v46.29c.06,10.13,1.48,17.8,4.24,23v1.68h-28.82Zm-23.59-19.84c4.21,0,8.09-.94,11.65-2.81s6.18-4.39,7.9-7.55v-18.36h-10.66c-14.28,0-21.88,4.94-22.8,14.81l-.1,1.68c0,3.55,1.25,6.48,3.75,8.79,2.5,2.3,5.92,3.45,10.27,3.45Z"/>
    <path class="cls-1" d="m1563.46,53.7v26.26h18.26v20.93h-18.26v53.3c0,3.95.76,6.78,2.27,8.49,1.51,1.71,4.41,2.57,8.69,2.57,3.16,0,5.96-.23,8.39-.69v21.62c-5.59,1.71-11.35,2.57-17.27,2.57-20.01,0-30.2-10.1-30.6-30.3v-57.55h-15.6v-20.93h15.6v-26.26h28.53Z"/>
    <path class="cls-1" d="m1661.58,175.9c-7.04,8.56-16.78,12.83-29.22,12.83-11.45,0-20.19-3.29-26.21-9.87-6.02-6.58-9.1-16.22-9.23-28.92v-69.98h28.53v69.08c0,11.13,5.07,16.7,15.2,16.7s16.32-3.36,19.94-10.08v-75.7h28.63v106.8h-26.85l-.79-10.86Z"/>
    <path class="cls-1" d="m1770.75,106.71c-3.88-.53-7.3-.79-10.27-.79-10.79,0-17.87,3.65-21.22,10.96v69.89h-28.53v-106.8h26.95l.79,12.73c5.73-9.8,13.65-14.71,23.79-14.71,3.16,0,6.12.43,8.88,1.28l-.39,27.44Z"/>
    <path class="cls-1" d="m1843.4,186.76c-1.32-2.57-2.27-5.76-2.86-9.57-6.91,7.7-15.89,11.55-26.95,11.55-10.46,0-19.13-3.03-26.01-9.08-6.88-6.05-10.32-13.69-10.32-22.9,0-11.32,4.2-20,12.59-26.06,8.39-6.05,20.51-9.11,36.37-9.18h13.13v-6.12c0-4.94-1.27-8.88-3.8-11.85-2.53-2.96-6.53-4.44-11.99-4.44-4.8,0-8.57,1.15-11.3,3.45-2.73,2.3-4.1,5.46-4.1,9.48h-28.53c0-6.18,1.91-11.91,5.73-17.18,3.82-5.26,9.21-9.39,16.19-12.39,6.97-2.99,14.81-4.49,23.49-4.49,13.16,0,23.61,3.31,31.34,9.92,7.73,6.61,11.6,15.91,11.6,27.89v46.29c.06,10.13,1.48,17.8,4.24,23v1.68h-28.82Zm-23.59-19.84c4.21,0,8.09-.94,11.65-2.81s6.18-4.39,7.9-7.55v-18.36h-10.66c-14.28,0-21.88,4.94-22.8,14.81l-.1,1.68c0,3.55,1.25,6.48,3.75,8.79,2.5,2.3,5.92,3.45,10.27,3.45Z"/>
    <path class="cls-1" d="m1920,186.76h-28.63V35.14h28.63v151.62Z"/>
  </g>
</svg>